<svg width="51" height="51" viewBox="0 0 51 51" fill="none" xmlns="http://www.w3.org/2000/svg">
<path d="M1.5 15C1.5 7.54416 7.54416 1.5 15 1.5H36C43.4558 1.5 49.5 7.54416 49.5 15V36C49.5 43.4558 43.4558 49.5 36 49.5H15C7.54416 49.5 1.5 43.4558 1.5 36V15Z" stroke="#FF00A2" stroke-width="3"/>
<path d="M20 15H22V17H30V15H32V17H33C34.11 17 35 17.9 35 19V33C35 34.11 34.11 35 33 35H19C17.89 35 17 34.1 17 33V19C17 17.89 17.89 17 19 17H20V15ZM19 22V33H33V22H19ZM21 24H31V26H21V24Z" fill="#FF00A2"/>
</svg>
