<svg width="25" height="26" viewBox="0 0 25 26" fill="none" xmlns="http://www.w3.org/2000/svg">
<path d="M22.2656 3.625H20.3125V2.84375C20.3125 2.42935 20.1479 2.03192 19.8549 1.7389C19.5618 1.44587 19.1644 1.28125 18.75 1.28125C18.3356 1.28125 17.9382 1.44587 17.6451 1.7389C17.3521 2.03192 17.1875 2.42935 17.1875 2.84375V3.625H14.0625V2.84375C14.0625 2.42935 13.8979 2.03192 13.6049 1.7389C13.3118 1.44587 12.9144 1.28125 12.5 1.28125C12.0856 1.28125 11.6882 1.44587 11.3951 1.7389C11.1021 2.03192 10.9375 2.42935 10.9375 2.84375V3.625H7.8125V2.84375C7.8125 2.42935 7.64788 2.03192 7.35485 1.7389C7.06183 1.44587 6.6644 1.28125 6.25 1.28125C5.8356 1.28125 5.43817 1.44587 5.14515 1.7389C4.85212 2.03192 4.6875 2.42935 4.6875 2.84375V3.625H2.73438C2.21637 3.625 1.71959 3.83078 1.35331 4.19706C0.987025 4.56334 0.78125 5.06012 0.78125 5.57812V21.2031C0.78125 21.7211 0.987025 22.2179 1.35331 22.5842C1.71959 22.9505 2.21637 23.1562 2.73438 23.1562H13.6719C13.7755 23.1562 13.8748 23.1151 13.9481 23.0418C14.0213 22.9686 14.0625 22.8692 14.0625 22.7656C14.0625 22.662 14.0213 22.5627 13.9481 22.4894C13.8748 22.4162 13.7755 22.375 13.6719 22.375H2.73438C2.42386 22.3741 2.12633 22.2503 1.90676 22.0307C1.68719 21.8112 1.56343 21.5136 1.5625 21.2031V9.09375H23.4375V15.7344C23.4375 15.838 23.4787 15.9373 23.5519 16.0106C23.6252 16.0838 23.7245 16.125 23.8281 16.125C23.9317 16.125 24.0311 16.0838 24.1043 16.0106C24.1776 15.9373 24.2188 15.838 24.2188 15.7344V5.57812C24.2188 5.06012 24.013 4.56334 23.6467 4.19706C23.2804 3.83078 22.7836 3.625 22.2656 3.625ZM17.9688 2.84375C17.9688 2.63655 18.0511 2.43784 18.1976 2.29132C18.3441 2.14481 18.5428 2.0625 18.75 2.0625C18.9572 2.0625 19.1559 2.14481 19.3024 2.29132C19.4489 2.43784 19.5312 2.63655 19.5312 2.84375V5.1875C19.5312 5.3947 19.4489 5.59341 19.3024 5.73993C19.1559 5.88644 18.9572 5.96875 18.75 5.96875C18.5428 5.96875 18.3441 5.88644 18.1976 5.73993C18.0511 5.59341 17.9688 5.3947 17.9688 5.1875V2.84375ZM11.7188 2.84375C11.7188 2.63655 11.8011 2.43784 11.9476 2.29132C12.0941 2.14481 12.2928 2.0625 12.5 2.0625C12.7072 2.0625 12.9059 2.14481 13.0524 2.29132C13.1989 2.43784 13.2812 2.63655 13.2812 2.84375V5.1875C13.2812 5.3947 13.1989 5.59341 13.0524 5.73993C12.9059 5.88644 12.7072 5.96875 12.5 5.96875C12.2928 5.96875 12.0941 5.88644 11.9476 5.73993C11.8011 5.59341 11.7188 5.3947 11.7188 5.1875V2.84375ZM5.46875 2.84375C5.46875 2.63655 5.55106 2.43784 5.69757 2.29132C5.84409 2.14481 6.0428 2.0625 6.25 2.0625C6.4572 2.0625 6.65591 2.14481 6.80243 2.29132C6.94894 2.43784 7.03125 2.63655 7.03125 2.84375V5.1875C7.03125 5.3947 6.94894 5.59341 6.80243 5.73993C6.65591 5.88644 6.4572 5.96875 6.25 5.96875C6.0428 5.96875 5.84409 5.88644 5.69757 5.73993C5.55106 5.59341 5.46875 5.3947 5.46875 5.1875V2.84375ZM23.4375 8.3125H1.5625V5.57812C1.56343 5.26761 1.68719 4.97008 1.90676 4.75051C2.12633 4.53094 2.42386 4.40718 2.73438 4.40625H4.6875V5.1875C4.6875 5.6019 4.85212 5.99933 5.14515 6.29235C5.43817 6.58538 5.8356 6.75 6.25 6.75C6.6644 6.75 7.06183 6.58538 7.35485 6.29235C7.64788 5.99933 7.8125 5.6019 7.8125 5.1875V4.40625H10.9375V5.1875C10.9375 5.6019 11.1021 5.99933 11.3951 6.29235C11.6882 6.58538 12.0856 6.75 12.5 6.75C12.9144 6.75 13.3118 6.58538 13.6049 6.29235C13.8979 5.99933 14.0625 5.6019 14.0625 5.1875V4.40625H17.1875V5.1875C17.1875 5.6019 17.3521 5.99933 17.6451 6.29235C17.9382 6.58538 18.3356 6.75 18.75 6.75C19.1644 6.75 19.5618 6.58538 19.8549 6.29235C20.1479 5.99933 20.3125 5.6019 20.3125 5.1875V4.40625H22.2656C22.5761 4.40718 22.8737 4.53094 23.0932 4.75051C23.3128 4.97008 23.4366 5.26761 23.4375 5.57812V8.3125Z" fill="#383838"/>
<path d="M11.7188 11.8281C11.7188 11.6209 11.6364 11.4222 11.4899 11.2757C11.3434 11.1292 11.1447 11.0469 10.9375 11.0469H9.375C9.1678 11.0469 8.96909 11.1292 8.82257 11.2757C8.67606 11.4222 8.59375 11.6209 8.59375 11.8281V13C8.59375 13.2072 8.67606 13.4059 8.82257 13.5524C8.96909 13.6989 9.1678 13.7812 9.375 13.7812H10.9375C11.1447 13.7812 11.3434 13.6989 11.4899 13.5524C11.6364 13.4059 11.7188 13.2072 11.7188 13V11.8281ZM9.375 13V11.8281H10.9375V13H9.375ZM7.03125 11.8281C7.03125 11.6209 6.94894 11.4222 6.80243 11.2757C6.65591 11.1292 6.4572 11.0469 6.25 11.0469H4.6875C4.4803 11.0469 4.28159 11.1292 4.13507 11.2757C3.98856 11.4222 3.90625 11.6209 3.90625 11.8281V13C3.90625 13.2072 3.98856 13.4059 4.13507 13.5524C4.28159 13.6989 4.4803 13.7812 4.6875 13.7812H6.25C6.4572 13.7812 6.65591 13.6989 6.80243 13.5524C6.94894 13.4059 7.03125 13.2072 7.03125 13V11.8281ZM4.6875 13V11.8281H6.25V13H4.6875ZM20.3125 13.7812C20.5197 13.7812 20.7184 13.6989 20.8649 13.5524C21.0114 13.4059 21.0938 13.2072 21.0938 13V11.8281C21.0938 11.6209 21.0114 11.4222 20.8649 11.2757C20.7184 11.1292 20.5197 11.0469 20.3125 11.0469H18.75C18.5428 11.0469 18.3441 11.1292 18.1976 11.2757C18.0511 11.4222 17.9688 11.6209 17.9688 11.8281V13C17.9688 13.2072 18.0511 13.4059 18.1976 13.5524C18.3441 13.6989 18.5428 13.7812 18.75 13.7812H20.3125ZM18.75 11.8281H20.3125V13H18.75V11.8281ZM11.7188 15.3438C11.7188 15.1365 11.6364 14.9378 11.4899 14.7913C11.3434 14.6448 11.1447 14.5625 10.9375 14.5625H9.375C9.1678 14.5625 8.96909 14.6448 8.82257 14.7913C8.67606 14.9378 8.59375 15.1365 8.59375 15.3438V16.5156C8.59375 16.7228 8.67606 16.9215 8.82257 17.0681C8.96909 17.2146 9.1678 17.2969 9.375 17.2969H10.9375C11.1447 17.2969 11.3434 17.2146 11.4899 17.0681C11.6364 16.9215 11.7188 16.7228 11.7188 16.5156V15.3438ZM9.375 16.5156V15.3438H10.9375V16.5156H9.375ZM7.03125 15.3438C7.03125 15.1365 6.94894 14.9378 6.80243 14.7913C6.65591 14.6448 6.4572 14.5625 6.25 14.5625H4.6875C4.4803 14.5625 4.28159 14.6448 4.13507 14.7913C3.98856 14.9378 3.90625 15.1365 3.90625 15.3438V16.5156C3.90625 16.7228 3.98856 16.9215 4.13507 17.0681C4.28159 17.2146 4.4803 17.2969 4.6875 17.2969H6.25C6.4572 17.2969 6.65591 17.2146 6.80243 17.0681C6.94894 16.9215 7.03125 16.7228 7.03125 16.5156V15.3438ZM4.6875 16.5156V15.3438H6.25V16.5156H4.6875ZM10.9375 18.0781H9.375C9.1678 18.0781 8.96909 18.1604 8.82257 18.3069C8.67606 18.4535 8.59375 18.6522 8.59375 18.8594V20.0312C8.59375 20.2385 8.67606 20.4372 8.82257 20.5837C8.96909 20.7302 9.1678 20.8125 9.375 20.8125H10.9375C11.1447 20.8125 11.3434 20.7302 11.4899 20.5837C11.6364 20.4372 11.7188 20.2385 11.7188 20.0312V18.8594C11.7188 18.6522 11.6364 18.4535 11.4899 18.3069C11.3434 18.1604 11.1447 18.0781 10.9375 18.0781ZM9.375 20.0312V18.8594H10.9375V20.0312H9.375ZM14.0625 13.7812H15.625C15.8322 13.7812 16.0309 13.6989 16.1774 13.5524C16.3239 13.4059 16.4062 13.2072 16.4062 13V11.8281C16.4062 11.6209 16.3239 11.4222 16.1774 11.2757C16.0309 11.1292 15.8322 11.0469 15.625 11.0469H14.0625C13.8553 11.0469 13.6566 11.1292 13.5101 11.2757C13.3636 11.4222 13.2812 11.6209 13.2812 11.8281V13C13.2812 13.2072 13.3636 13.4059 13.5101 13.5524C13.6566 13.6989 13.8553 13.7812 14.0625 13.7812ZM14.0625 11.8281H15.625V13H14.0625V11.8281ZM13.2812 16.5156C13.2812 16.7228 13.3636 16.9215 13.5101 17.0681C13.6566 17.2146 13.8553 17.2969 14.0625 17.2969C14.1661 17.2969 14.2655 17.2557 14.3387 17.1825C14.412 17.1092 14.4531 17.0099 14.4531 16.9062C14.4531 16.8026 14.412 16.7033 14.3387 16.63C14.2655 16.5568 14.1661 16.5156 14.0625 16.5156V15.3438H15.625C15.7286 15.3438 15.828 15.3026 15.9012 15.2293C15.9745 15.1561 16.0156 15.0567 16.0156 14.9531C16.0156 14.8495 15.9745 14.7502 15.9012 14.6769C15.828 14.6037 15.7286 14.5625 15.625 14.5625H14.0625C13.8553 14.5625 13.6566 14.6448 13.5101 14.7913C13.3636 14.9378 13.2812 15.1365 13.2812 15.3438V16.5156ZM6.25 18.0781H4.6875C4.4803 18.0781 4.28159 18.1604 4.13507 18.3069C3.98856 18.4535 3.90625 18.6522 3.90625 18.8594V20.0312C3.90625 20.2385 3.98856 20.4372 4.13507 20.5837C4.28159 20.7302 4.4803 20.8125 4.6875 20.8125H6.25C6.4572 20.8125 6.65591 20.7302 6.80243 20.5837C6.94894 20.4372 7.03125 20.2385 7.03125 20.0312V18.8594C7.03125 18.6522 6.94894 18.4535 6.80243 18.3069C6.65591 18.1604 6.4572 18.0781 6.25 18.0781ZM4.6875 20.0312V18.8594H6.25V20.0312H4.6875Z" fill="#383838"/>
<path d="M19.1406 14.5625C18.1363 14.5625 17.1545 14.8603 16.3194 15.4183C15.4843 15.9763 14.8334 16.7694 14.4491 17.6973C14.0647 18.6252 13.9641 19.6463 14.1601 20.6313C14.356 21.6164 14.8397 22.5212 15.5499 23.2314C16.26 23.9416 17.1649 24.4252 18.1499 24.6212C19.135 24.8171 20.156 24.7166 21.0839 24.3322C22.0118 23.9478 22.8049 23.297 23.3629 22.4619C23.9209 21.6268 24.2188 20.645 24.2188 19.6406C24.2172 18.2943 23.6817 17.0036 22.7297 16.0516C21.7777 15.0996 20.487 14.5641 19.1406 14.5625ZM19.1406 23.9375C18.2908 23.9375 17.46 23.6855 16.7534 23.2133C16.0468 22.7412 15.4961 22.0701 15.1708 21.285C14.8456 20.4998 14.7605 19.6359 14.9263 18.8023C15.0921 17.9688 15.5013 17.2032 16.1023 16.6023C16.7032 16.0013 17.4688 15.5921 18.3023 15.4263C19.1359 15.2605 19.9998 15.3456 20.785 15.6708C21.5701 15.9961 22.2412 16.5468 22.7133 17.2534C23.1855 17.96 23.4375 18.7908 23.4375 19.6406C23.4362 20.7798 22.983 21.872 22.1775 22.6775C21.372 23.483 20.2798 23.9362 19.1406 23.9375Z" fill="#383838"/>
<path d="M21.3977 18.0032L18.3594 21.0415L16.9785 19.6602C16.9049 19.5891 16.8062 19.5497 16.7038 19.5506C16.6013 19.5515 16.5034 19.5926 16.4309 19.665C16.3585 19.7374 16.3174 19.8354 16.3165 19.9378C16.3157 20.0402 16.355 20.1389 16.4262 20.2126L18.0832 21.87C18.1565 21.9432 18.2558 21.9844 18.3594 21.9844C18.463 21.9844 18.5623 21.9432 18.6356 21.87L21.95 18.5556C22.0212 18.4819 22.0605 18.3832 22.0596 18.2808C22.0588 18.1784 22.0177 18.0804 21.9453 18.008C21.8728 17.9355 21.7749 17.8945 21.6724 17.8936C21.57 17.8927 21.4713 17.9321 21.3977 18.0032Z" fill="#383838"/>
</svg>
