<svg width="17" height="17" viewBox="0 0 17 17" fill="none" xmlns="http://www.w3.org/2000/svg">
<g clip-path="url(#clip0_53_4397)">
<path d="M15.0733 4.53356L8.31576 11.291C7.64285 11.9639 5.64533 12.2756 5.19908 11.8294C4.75283 11.3831 5.05741 9.38561 5.73033 8.71269L12.4949 1.94812C12.6617 1.76613 12.8637 1.61983 13.0887 1.51804C13.3136 1.41625 13.5568 1.36107 13.8036 1.35587C14.0504 1.35068 14.2958 1.39555 14.5248 1.48778C14.7538 1.58001 14.9618 1.71771 15.1361 1.89253C15.3104 2.06734 15.4475 2.27566 15.5391 2.50492C15.6307 2.73419 15.675 2.97963 15.6691 3.22645C15.6632 3.47327 15.6073 3.71636 15.505 3.94101C15.4026 4.16565 15.2557 4.36724 15.0733 4.53356Z" stroke="white" stroke-linecap="round" stroke-linejoin="round"/>
<path d="M7.79169 2.83301H4.25002C3.49857 2.83301 2.77795 3.13151 2.24659 3.66287C1.71524 4.19423 1.41669 4.91489 1.41669 5.66634V12.7497C1.41669 13.5011 1.71524 14.2218 2.24659 14.7531C2.77795 15.2845 3.49857 15.583 4.25002 15.583H12.0417C13.6071 15.583 14.1667 14.308 14.1667 12.7497V9.20801" stroke="white" stroke-linecap="round" stroke-linejoin="round"/>
</g>
<defs>
<clipPath id="clip0_53_4397">
<rect width="17" height="17" fill="white"/>
</clipPath>
</defs>
</svg>
