<svg width="21" height="20" viewBox="0 0 21 20" fill="none" xmlns="http://www.w3.org/2000/svg">
<g clip-path="url(#clip0_604_148)">
<path d="M10.5 7.08301C8.89206 7.08301 7.58331 8.39134 7.58331 9.99967C7.58331 11.608 8.89206 12.9163 10.5 12.9163C12.1079 12.9163 13.4166 11.608 13.4166 9.99967C13.4166 8.39134 12.1079 7.08301 10.5 7.08301ZM10.5 11.2497C9.81081 11.2497 9.24998 10.6888 9.24998 9.99967C9.24998 9.31051 9.81081 8.74967 10.5 8.74967C11.1891 8.74967 11.75 9.31051 11.75 9.99967C11.75 10.6888 11.1891 11.2497 10.5 11.2497Z" fill="#878787"/>
<path d="M19.6667 9.16667H17.9508C17.565 5.69625 14.8038 2.935 11.3333 2.54917V0.833333C11.3333 0.373333 10.96 0 10.5 0C10.04 0 9.66667 0.373333 9.66667 0.833333V2.54917C6.19625 2.935 3.435 5.69625 3.04917 9.16667H1.33333C0.873333 9.16667 0.5 9.54 0.5 10C0.5 10.46 0.873333 10.8333 1.33333 10.8333H3.04917C3.435 14.3038 6.19625 17.065 9.66667 17.4508V19.1667C9.66667 19.6267 10.04 20 10.5 20C10.96 20 11.3333 19.6267 11.3333 19.1667V17.4508C14.8038 17.065 17.565 14.3038 17.9508 10.8333H19.6667C20.1267 10.8333 20.5 10.46 20.5 10C20.5 9.54 20.1267 9.16667 19.6667 9.16667ZM10.5 15.8333C7.28333 15.8333 4.66667 13.2167 4.66667 10C4.66667 6.78333 7.28333 4.16667 10.5 4.16667C13.7167 4.16667 16.3333 6.78333 16.3333 10C16.3333 13.2167 13.7167 15.8333 10.5 15.8333Z" fill="#878787"/>
</g>
<defs>
<clipPath id="clip0_604_148">
<rect width="20" height="20" fill="white" transform="translate(0.5)"/>
</clipPath>
</defs>
</svg>
